# xmcd
#
# Track frame offsets: 
#        150
#        21857
#        37946
#        54616
#        86143
#        110080
#        126448
#        143658
#
# Disc length: 2364 seconds
#
# Revision: 3
# Processed by: cddbd v1.5.2PL0 Copyright (c) Steve Scherf et al.
# Submitted via: ExactAudioCopyFreeDBPlugin 1.0
#
DISCID=6d093a08
DTITLE=Al Green - The Belle Album
DYEAR=1977
DGENRE=Soul
TTITLE0=Belle
TTITLE1=Loving You
TTITLE2=Feels Like Summer
TTITLE3=Georgia Boy
TTITLE4=I Feel Good
TTITLE5=All 'n' All
TTITLE6=Chariots of Fire
TTITLE7=Dream
EXTD=
EXTT0=
EXTT1=
EXTT2=
EXTT3=
EXTT4=
EXTT5=
EXTT6=
EXTT7=
PLAYORDER=
